<svg xmlns="http://www.w3.org/2000/svg" enable-background="new 0 0 47.5 47.5" viewBox="0 0 47.5 47.5" id="door"><defs><clipPath id="a"><path d="M0 38h38V0H0v38Z"></path></clipPath></defs><g clip-path="url(#a)" transform="matrix(1.25 0 0 -1.25 0 47.5)"><path fill="#bcbec0" d="M0 0h-3v28a4 4 0 0 1-4 4h-18a4 4 0 0 1-4-4V0h-3a2 2 0 0 1 0-4H0a2 2 0 0 1 0 4" transform="translate(35 5)"></path><path fill="#be1931" d="M0 0a3 3 0 0 0-3-3h-16a3 3 0 0 0-3 3v28a3 3 0 0 0 3 3h16a3 3 0 0 0 3-3V0Z" transform="translate(30 4)"></path><path fill="#f4900c" d="M0 0a2.5 2.5 0 1 0-5 0 2.5 2.5 0 0 0 5 0" transform="translate(15 17.5)"></path><path fill="#ffd983" d="M0 0a1.5 1.5 0 1 0-3 0 1.5 1.5 0 0 0 3 0" transform="translate(14 17.5)"></path><path fill="#ea596e" d="M0 0h-4a1 1 0 1 0 0 2h3v7a1 1 0 1 0 2 0V1a1 1 0 0 0-1-1" transform="translate(27 21)"></path><path fill="#a0041e" d="M0 0a1 1 0 0 0-1 1v8a1 1 0 0 0 1 1h4a1 1 0 1 0 0-2H1V1a1 1 0 0 0-1-1" transform="translate(21 23)"></path><path fill="#ea596e" d="M0 0h-4a1 1 0 0 0 0 2h3v7a1 1 0 0 0 2 0V1a1 1 0 0 0-1-1" transform="translate(17 21)"></path><path fill="#a0041e" d="M0 0a1 1 0 0 0-1 1v8a1 1 0 0 0 1 1h4a1 1 0 0 0 0-2H1V1a1 1 0 0 0-1-1" transform="translate(11 23)"></path><path fill="#ea596e" d="M0 0h-4a1 1 0 1 0 0 2h3v6a1 1 0 1 0 2 0V1a1 1 0 0 0-1-1" transform="translate(27 3)"></path><path fill="#a0041e" d="M0 0a1 1 0 0 0-1 1v7a1 1 0 0 0 1 1h4a1 1 0 1 0 0-2H1V1a1 1 0 0 0-1-1" transform="translate(21 5)"></path><path fill="#ea596e" d="M0 0h-4a1 1 0 1 0 0 2h3v6a1 1 0 1 0 2 0V1a1 1 0 0 0-1-1" transform="translate(17 3)"></path><path fill="#a0041e" d="M0 0a1 1 0 0 0-1 1v7a1 1 0 0 0 1 1h4a1 1 0 1 0 0-2H1V1a1 1 0 0 0-1-1" transform="translate(11 5)"></path></g></svg>