<svg xmlns="http://www.w3.org/2000/svg" viewBox="0 0 64 64" id="fan"><path fill="#CCC" d="M34.913 44h-5.826l-1.182 13h8.19z"></path><circle cx="32" cy="24" r="22" fill="#CCC"></circle><path fill="#FF8000" d="M47.367 26.54a5.014 5.014 0 0 0-3.179-2.422l-9.423-2.369c-.029-.007-.058 0-.087-.005 0-.014.007-.025.006-.039l-.165-7.178.146-.021a3.938 3.938 0 0 0 2.606-1.562c.632-.852.895-1.899.729-3.007-.314-2.123-2.331-3.666-4.51-3.344l-2.679.397a5.021 5.021 0 0 0-3.395 2.125 5.01 5.01 0 0 0-.749 3.925l2.085 9.49a.99.99 0 0 0 .144.334 1 1 0 0 0-.279.122l-5.945 4.025-.097-.111c-1.389-1.584-3.966-1.805-5.647-.331a3.95 3.95 0 0 0-1.346 2.725 3.937 3.937 0 0 0 .976 2.878l1.786 2.039a5.002 5.002 0 0 0 3.762 1.705 4.954 4.954 0 0 0 3.567-1.498l6.85-6.891c.068-.068.11-.149.154-.229.058.045.11.096.179.128l6.497 3.055-.046.141c-.678 2.082.464 4.326 2.601 5.023a3.961 3.961 0 0 0 5.006-2.543l.84-2.577a5.017 5.017 0 0 0-.387-3.985zm-14.962-.56-2.365-2.7 3.411-.507-1.046 3.207z"></path><path fill="#FFF" d="M32 35c-.746 0-1.491-.075-2.216-.224a.998.998 0 0 1-.779-1.18.997.997 0 0 1 1.18-.779 9.066 9.066 0 0 0 5.439-.577 1 1 0 1 1 .806 1.83c-1.399.618-2.89.93-4.43.93zM22.051 24a.999.999 0 0 1-.996-1.099 11.016 11.016 0 0 1 3.091-6.602 1 1 0 1 1 1.428 1.4 9.006 9.006 0 0 0-2.528 5.399 1.001 1.001 0 0 1-.995.902zM17.029 24.069c-.021 0-.041 0-.063-.002a1 1 0 0 1-.937-1.059 15.97 15.97 0 0 1 6.38-11.816.999.999 0 1 1 1.199 1.6 13.974 13.974 0 0 0-5.583 10.338.998.998 0 0 1-.996.939zM32 40a15.93 15.93 0 0 1-6.212-1.25 1 1 0 0 1 .777-1.843c3.824 1.61 8.362 1.407 12.023-.551a1 1 0 1 1 .944 1.764A16.036 16.036 0 0 1 32 40zM46.875 23.063a1 1 0 0 1-.991-.872 13.993 13.993 0 0 0-4.493-8.574 1 1 0 0 1 1.342-1.484 16.003 16.003 0 0 1 5.136 9.801 1 1 0 0 1-.994 1.129z"></path><path fill="#4D4D4D" d="M32 54c-4.963 0-9 3.14-9 7a1 1 0 0 0 1 1h16a1 1 0 0 0 1-1c0-3.86-4.037-7-9-7z"></path><circle cx="32" cy="24" r="3" fill="#FFF"></circle><path fill="#4D4D4D" d="M32 28c-2.206 0-4-1.794-4-4s1.794-4 4-4 4 1.794 4 4-1.794 4-4 4zm0-6c-1.103 0-2 .897-2 2s.897 2 2 2 2-.897 2-2-.897-2-2-2z"></path><path fill="#FFF" d="M41.55 22.026c-.427 0-.821-.275-.955-.704a8.96 8.96 0 0 0-3.159-4.496 1 1 0 0 1 1.209-1.593 10.938 10.938 0 0 1 3.86 5.496 1.001 1.001 0 0 1-.955 1.297z"></path><path fill="#4D4D4D" d="M32 46c-12.131 0-22-9.869-22-22S19.869 2 32 2s22 9.869 22 22-9.869 22-22 22zm0-42c-11.028 0-20 8.972-20 20s8.972 20 20 20 20-8.972 20-20S43.028 4 32 4z"></path><path fill="#4D4D4D" d="M32 43c-10.477 0-19-8.523-19-19S21.523 5 32 5s19 8.523 19 19-8.523 19-19 19zm0-37c-9.925 0-18 8.075-18 18s8.075 18 18 18 18-8.075 18-18S41.925 6 32 6z"></path><path fill="#4D4D4D" d="M32 37c-7.168 0-13-5.832-13-13s5.832-13 13-13 13 5.832 13 13-5.832 13-13 13zm0-25c-6.617 0-12 5.383-12 12s5.383 12 12 12 12-5.383 12-12-5.383-12-12-12z"></path><path fill="#4D4D4D" d="M32 31c-3.859 0-7-3.14-7-7s3.141-7 7-7 7 3.14 7 7-3.141 7-7 7zm0-13c-3.309 0-6 2.691-6 6s2.691 6 6 6 6-2.691 6-6-2.691-6-6-6z"></path><path fill="#4D4D4D" d="M31.5 3h1v18h-1zM28.692 24.61l.617.786L15.304 36.39l-.617-.786zM35.31 24.606l13.998 11-.617.785-13.999-11z"></path></svg>