<svg xmlns="http://www.w3.org/2000/svg" viewBox="0 0 32 32" id="humidity"><defs><linearGradient id="a" x1="6.989" x2="27.341" y1="6.6" y2="26.952" gradientUnits="userSpaceOnUse"><stop offset="0" stop-color="#d4fc79"></stop><stop offset="1" stop-color="#96e6a1"></stop></linearGradient></defs><path fill="url(#a)" d="M22,20a7.876,7.876,0,0,0-.27-1.87c0.01-.01.03-0.02,0.04-0.03a4.178,4.178,0,0,1,5.65,0,2.185,2.185,0,0,0,1.58.66,1,1,0,0,1,0,2,4.117,4.117,0,0,1-2.83-1.1A2.145,2.145,0,0,0,24.6,19a2.185,2.185,0,0,0-1.58.66,5.27,5.27,0,0,1-1.03.69C22,20.24,22,20.12,22,20Zm1.02,3.78a2.185,2.185,0,0,1,1.58-.66,2.145,2.145,0,0,1,1.57.66A4.117,4.117,0,0,0,29,24.88a1,1,0,0,0,0-2,2.185,2.185,0,0,1-1.58-.66,4.178,4.178,0,0,0-5.65,0,0.053,0.053,0,0,1-.03.02,9.509,9.509,0,0,1-.99,2.6A4.191,4.191,0,0,0,23.02,23.78Zm-2.83-3.02a1.693,1.693,0,0,1-.23-0.01,4.113,4.113,0,0,1-2.59-1.09A2.185,2.185,0,0,0,15.79,19a2.162,2.162,0,0,0-1.57.66,4.068,4.068,0,0,1-2.82,1.1,1,1,0,0,1,0-2,2.179,2.179,0,0,0,1.57-.66,4.178,4.178,0,0,1,5.65,0,2.3,2.3,0,0,0,1.2.63,2.05,2.05,0,0,0,.37.03,2.148,2.148,0,0,0,1.54-.63C20.29,12.54,13.64,3.52,12.8,2.4a1.041,1.041,0,0,0-1.6,0C10.26,3.66,2,14.85,2,20a10,10,0,0,0,18.75,4.84,3.275,3.275,0,0,1-.56.04,3.753,3.753,0,0,1-1.62-.33,5.068,5.068,0,0,1-1.2-.77,2.185,2.185,0,0,0-1.58-.66,2.162,2.162,0,0,0-1.57.66,4.068,4.068,0,0,1-2.82,1.1,1,1,0,0,1,0-2,2.179,2.179,0,0,0,1.57-.66,4.178,4.178,0,0,1,5.65,0,2.833,2.833,0,0,0,.88.56,2.238,2.238,0,0,0,.69.1,2.139,2.139,0,0,0,1.55-.64,9.057,9.057,0,0,0,.25-1.89A3.8,3.8,0,0,1,20.19,20.76ZM30,10.5a4.5,4.5,0,0,1-9,0c0-2.16,3.09-6.3,3.71-7.11a1.033,1.033,0,0,1,1.58,0C26.91,4.2,30,8.34,30,10.5ZM26,13a0.5,0.5,0,0,0-.5-0.5,2,2,0,0,1-2-2,0.5,0.5,0,0,0-1,0,3,3,0,0,0,3,3A0.5,0.5,0,0,0,26,13Z"></path></svg>