<svg xmlns="http://www.w3.org/2000/svg" viewBox="0 0 64 64" id="led-bulb"><g><path fill="#77787c" d="M26,50V47h0a4.828,4.828,0,0,0-1.414-3.414h0A19.071,19.071,0,0,1,19,30.1h0A47.609,47.609,0,0,1,23.1,10.77l1.867-4.2A7.7,7.7,0,0,1,32,2h0a7.7,7.7,0,0,1,7.031,4.569l1.867,4.2A47.609,47.609,0,0,1,45,30.1h0a19.071,19.071,0,0,1-5.586,13.485h0A4.828,4.828,0,0,0,38,47h0v3h0a2,2,0,0,1,2,2h0a2,2,0,0,1-2,2h0a2,2,0,0,1,2,2h0a2,2,0,0,1-2,2h0l-1.115,1.487a6.171,6.171,0,0,1-2.743,2.124A6.015,6.015,0,0,1,27.2,59.6L26,58h0a2,2,0,0,1-2-2h0a2,2,0,0,1,2-2h0a2,2,0,0,1-2-2h0a2,2,0,0,1,2-2Z"></path><path fill="#959596" d="M39.031,6.569A7.686,7.686,0,0,0,34,2.277a7.686,7.686,0,0,0-5.031,4.292L27.1,10.77A47.608,47.608,0,0,0,23,30.1h0a19.071,19.071,0,0,0,5.586,13.485A4.828,4.828,0,0,1,30,47v3a2,2,0,0,0,0,4,2,2,0,0,0,0,4l1.2,1.6a5.986,5.986,0,0,0,2.817,2.046c.042-.014.084-.02.125-.035a6.171,6.171,0,0,0,2.743-2.124L38,58a2,2,0,0,0,0-4,2,2,0,0,0,0-4V47a4.828,4.828,0,0,1,1.414-3.414A19.071,19.071,0,0,0,45,30.1h0a47.608,47.608,0,0,0-4.1-19.33Z"></path><path fill="#f9d655" d="M45,30.1a47.608,47.608,0,0,0-4.1-19.33l-1.867-4.2a7.694,7.694,0,0,0-14.062,0L23.1,10.77A47.608,47.608,0,0,0,19,30.1h0q0,.956.1,1.9H44.9q.094-.942.1-1.9Z"></path><path fill="#ffe48d" d="M39.031,6.569A7.686,7.686,0,0,0,34,2.277a7.686,7.686,0,0,0-5.031,4.292L27.1,10.77A47.608,47.608,0,0,0,23,30.1h0q0,.956.1,1.9H44.9q.094-.942.1-1.9h0a47.608,47.608,0,0,0-4.1-19.33Z"></path><path fill="#b7b7b7" d="M38,47a4.828,4.828,0,0,1,1.414-3.414A19.055,19.055,0,0,0,44.049,36h-24.1a19.055,19.055,0,0,0,4.635,7.586A4.828,4.828,0,0,1,26,47v3H38Z"></path><path fill="#d8d8d8" d="M38,47a4.828,4.828,0,0,1,1.414-3.414A19.055,19.055,0,0,0,44.049,36h-20.1a19.055,19.055,0,0,0,4.635,7.586A4.828,4.828,0,0,1,30,47v3h8Z"></path><polyline fill="#fff4d9" points="28 32 28 18 36 18 36 32"></polyline><path fill="#5a5b5e" d="M26 50a1.994 1.994 0 00-1.723 1H39.723A1.994 1.994 0 0038 50V49H26zM26 54a1.994 1.994 0 00-1.723 1H39.723A1.994 1.994 0 0038 54a1.994 1.994 0 001.723-1H24.277A1.994 1.994 0 0026 54zM26 58l.75 1h10.5L38 58a1.994 1.994 0 001.723-1H24.277A1.994 1.994 0 0026 58z"></path><path d="M40.121,44.293A19.939,19.939,0,0,0,46,30.1a48.29,48.29,0,0,0-4.188-19.737l-1.868-4.2a8.693,8.693,0,0,0-15.888,0l-1.868,4.2A48.29,48.29,0,0,0,18,30.1a19.939,19.939,0,0,0,5.879,14.192A3.853,3.853,0,0,1,25,47v2.171A3,3,0,0,0,23.766,54a3,3,0,0,0,1.7,4.952L26.4,60.2A6.959,6.959,0,0,0,31.988,63a6.961,6.961,0,0,0,5.7-2.915l.851-1.135A3,3,0,0,0,40.234,54,3,3,0,0,0,39,49.171V47A3.853,3.853,0,0,1,40.121,44.293ZM20.251,33h23.5a17.7,17.7,0,0,1-.433,2H20.684A17.7,17.7,0,0,1,20.251,33ZM35,31H29V19h6ZM24.017,11.177l1.867-4.2a6.692,6.692,0,0,1,12.232,0l1.867,4.2A46.294,46.294,0,0,1,44,30.1c0,.3-.029.6-.044.9H37V18a1,1,0,0,0-1-1H28a1,1,0,0,0-1,1V31H20.044c-.015-.3-.044-.6-.044-.9A46.294,46.294,0,0,1,24.017,11.177Zm9.778,49.5A5.008,5.008,0,0,1,28,59h7.988A5.114,5.114,0,0,1,33.8,60.674ZM38,57H26a1,1,0,0,1,0-2H38a1,1,0,0,1,0,2Zm0-4H26a1,1,0,0,1,0-2H38a1,1,0,0,1,0,2Zm.707-10.121A5.868,5.868,0,0,0,37,47v2H27V47a5.868,5.868,0,0,0-1.707-4.121A18.048,18.048,0,0,1,21.359,37H42.641A18.048,18.048,0,0,1,38.707,42.879Z"></path></g></svg>