<svg xmlns="http://www.w3.org/2000/svg" width="512" height="512" enable-background="new 0 0 512 512" viewBox="0 0 512 512" id="temperature"><path fill="#C58B36" fill-rule="evenodd" d="M175.069,195.621c-33.446,0-60.376,27.071-60.376,60.378
		c0,33.31,26.93,60.378,60.376,60.378c33.308,0,60.38-27.068,60.38-60.378C235.449,222.692,208.377,195.621,175.069,195.621
		L175.069,195.621z M175.069,185.56c38.838,0,70.302,31.605,70.302,70.439c0,38.837-31.464,70.439-70.302,70.439
		c-38.975,0-70.44-31.603-70.44-70.439C104.629,217.165,136.094,185.56,175.069,185.56L175.069,185.56z M273.999,229.496
		c-24.236,1.135-39.683-25.653-26.505-45.922c-20.41,13.041-47.194-2.409-45.92-26.645c-11.054,21.543-42.094,21.543-53.148,0
		c1.273,24.236-25.515,39.686-45.925,26.645c13.182,20.27-2.265,47.057-26.501,45.922c21.542,11.054,21.542,41.955,0,53.009
		c24.236-1.135,39.683,25.65,26.501,45.92c20.41-13.04,47.198,2.411,45.925,26.647c11.054-21.546,42.094-21.546,53.148,0
		c-1.274-24.236,25.51-39.688,45.92-26.647c-13.177-20.27,2.269-47.055,26.505-45.92
		C252.457,271.451,252.457,240.551,273.999,229.496L273.999,229.496z" clip-rule="evenodd"></path><path fill="#B64727" fill-rule="evenodd" d="M346,264.931v57.825c-15.876,6.945-26.931,22.817-26.931,41.243
		c0,24.804,20.127,45.073,44.929,45.073c24.804,0,45.072-20.27,45.072-45.073c0-18.426-11.201-34.298-27.072-41.243v-57.825
		c0-9.783-8.077-17.861-18-17.861C354.077,247.071,346,255.149,346,264.931L346,264.931z" clip-rule="evenodd"></path><path fill="#747869" fill-rule="evenodd" d="M337.07,317.229v-196.3c0-14.74,12.044-26.929,26.929-26.929
		c14.881,0,27.073,12.189,27.073,26.929v196.3c16.012,9.353,26.925,26.784,26.925,46.771c0,29.764-24.095,54-53.998,54
		c-29.766,0-54.001-24.236-54.001-54C309.997,344.013,320.91,326.582,337.07,317.229L337.07,317.229z M319.07,307.73
		c-16.583,13.324-27.071,33.594-27.071,56.27c0,39.825,32.313,72,72,72C403.823,436,436,403.825,436,364
		c0-22.676-10.488-42.945-26.93-56.27V120.929c0-24.662-20.269-44.929-45.072-44.929c-24.802,0-44.929,20.267-44.929,44.929
		C319.07,183.149,319.07,245.513,319.07,307.73L319.07,307.73z" clip-rule="evenodd"></path></svg>